ffmpeg version 3.4.8-0ubuntu0.2 Copyright (c) 2000-2020 the FFmpeg developers
  built with gcc 7 (Ubuntu 7.5.0-3ubuntu1~18.04)
  configuration: --prefix=/usr --extra-version=0ubuntu0.2 --toolchain=hardened --libdir=/usr/lib/x86_64-linux-gnu --incdir=/usr/include/x86_64-linux-gnu --enable-gpl --disable-stripping --enable-avresample --enable-avisynth --enable-gnutls --enable-ladspa --enable-libass --enable-libbluray --enable-libbs2b --enable-libcaca --enable-libcdio --enable-libflite --enable-libfontconfig --enable-libfreetype --enable-libfribidi --enable-libgme --enable-libgsm --enable-libmp3lame --enable-libmysofa --enable-libopenjpeg --enable-libopenmpt --enable-libopus --enable-libpulse --enable-librubberband --enable-librsvg --enable-libshine --enable-libsnappy --enable-libsoxr --enable-libspeex --enable-libssh --enable-libtheora --enable-libtwolame --enable-libvorbis --enable-libvpx --enable-libwavpack --enable-libwebp --enable-libx265 --enable-libxml2 --enable-libxvid --enable-libzmq --enable-libzvbi --enable-omx --enable-openal --enable-opengl --enable-sdl2 --enable-libdc1394 --enable-libdrm --enable-libiec61883 --enable-chromaprint --enable-frei0r --enable-libopencv --enable-libx264 --enable-shared
  libavutil      55. 78.100 / 55. 78.100
  libavcodec     57.107.100 / 57.107.100
  libavformat    57. 83.100 / 57. 83.100
  libavdevice    57. 10.100 / 57. 10.100
  libavfilter     6.107.100 /  6.107.100
  libavresample   3.  7.  0 /  3.  7.  0
  libswscale      4.  8.100 /  4.  8.100
  libswresample   2.  9.100 /  2.  9.100
  libpostproc    54.  7.100 / 54.  7.100
[rawvideo @ 0x5643ddec5a20] Estimating duration from bitrate, this may be inaccurate
Input #0, rawvideo, from '../../SVC-Encoder-20220109T061506Z-001/SVC-Encoder/Dataset/RollerCoaster/ERP_8x8/tile_yuv/Tile_24_480x240.yuv':
  Duration: 00:00:10.00, start: 0.000000, bitrate: 41472 kb/s
    Stream #0:0: Video: rawvideo (I420 / 0x30323449), yuv420p, 480x240, 41472 kb/s, 30 tbr, 30 tbn, 30 tbc
Stream mapping:
  Stream #0:0 -> #0:0 (rawvideo (native) -> h264 (libx264))
Press [q] to stop, [?] for help
[libx264 @ 0x5643dded2c60] using cpu capabilities: MMX2 SSE2Fast LZCNT SSSE3 SSE4.2 AVX
[libx264 @ 0x5643dded2c60] profile High, level 2.1
Output #0, rawvideo, to 'RollerCoaster_Tile_24_480x240_x264_QP_32.h264':
  Metadata:
    encoder         : Lavf57.83.100
    Stream #0:0: Video: h264 (libx264), yuv420p, 480x240, q=-1--1, 30 fps, 30 tbn, 30 tbc
    Metadata:
      encoder         : Lavc57.107.100 libx264
    Side data:
      cpb: bitrate max/min/avg: 0/0/0 buffer size: 0 vbv_delay: -1
frame=  157 fps=0.0 q=38.0 PSNR=Y:nan U:nan V:nan *:nan size=      74kB time=00:00:03.80 bitrate= 159.9kbits/s speed=7.56x    frame=  300 fps=278 q=38.0 LPSNR=Y:inf U:inf V:inf *:inf size=     182kB time=00:00:09.93 bitrate= 150.5kbits/s speed=9.22x    
video:182kB audio:0kB subtitle:0kB other streams:0kB global headers:0kB muxing overhead: 0.000000%
[libx264 @ 0x5643dded2c60] frame I:2     Avg QP:29.21  size: 14195  PSNR Mean Y:36.16 U:43.43 V:46.76 Avg:37.63 Global:37.55
[libx264 @ 0x5643dded2c60] frame P:76    Avg QP:31.27  size:  1591  PSNR Mean Y:34.19 U:44.15 V:46.72 Avg:35.79 Global:35.74
[libx264 @ 0x5643dded2c60] frame B:222   Avg QP:37.44  size:   169  PSNR Mean Y:34.04 U:43.97 V:46.69 Avg:35.64 Global:35.62
[libx264 @ 0x5643dded2c60] consecutive B-frames:  1.3%  0.0%  0.0% 98.7%
[libx264 @ 0x5643dded2c60] mb I  I16..4:  2.4% 87.6% 10.0%
[libx264 @ 0x5643dded2c60] mb P  I16..4:  0.0%  0.0%  0.0%  P16..4: 42.5% 17.9%  8.5%  0.0%  0.0%    skip:31.1%
[libx264 @ 0x5643dded2c60] mb B  I16..4:  0.0%  0.0%  0.0%  B16..8: 35.2%  0.5%  0.0%  direct: 0.0%  skip:64.3%  L0:27.8% L1:71.3% BI: 0.9%
[libx264 @ 0x5643dded2c60] 8x8 transform intra:87.6% inter:63.7%
[libx264 @ 0x5643dded2c60] coded y,uvDC,uvAC intra: 97.8% 79.6% 29.1% inter: 5.9% 2.6% 0.0%
[libx264 @ 0x5643dded2c60] i16 v,h,dc,p: 14% 18% 45% 23%
[libx264 @ 0x5643dded2c60] i8 v,h,dc,ddl,ddr,vr,hd,vl,hu:  8% 21% 14%  5%  9%  7% 13% 12% 12%
[libx264 @ 0x5643dded2c60] i4 v,h,dc,ddl,ddr,vr,hd,vl,hu: 15% 14% 11%  5%  8%  8% 10% 23%  6%
[libx264 @ 0x5643dded2c60] i8c dc,h,v,p: 42% 24% 18% 16%
[libx264 @ 0x5643dded2c60] Weighted P-Frames: Y:1.3% UV:0.0%
[libx264 @ 0x5643dded2c60] ref P L0: 64.2% 18.1% 15.1%  2.6%  0.0%
[libx264 @ 0x5643dded2c60] ref B L0: 90.3%  8.9%  0.8%
[libx264 @ 0x5643dded2c60] ref B L1: 87.5% 12.5%
[libx264 @ 0x5643dded2c60] PSNR Mean Y:34.095 U:44.011 V:46.699 Avg:35.688 Global:35.658 kb/s:149.47
